/* XPM */
static char *hopo[] = {
/* width height ncolors chars_per_pixel */
"32 32 144 2",
/* colors */
"   c #000000",
" . c #878900",
" X c #A39336",
" o c #AB0000",
" O c #A68E2F",
" + c #6C650D",
" @ c #BAAA1E",
" # c #E6C83C",
" $ c #1F2000",
" % c #4B480A",
" & c #C6A93A",
" * c #DBDDEA",
" = c #DDBD40",
" - c #F6D148",
" ; c #A8912D",
" : c #988427",
" > c #B29F26",
" , c #959570",
" < c #C2A539",
" 1 c #8C9111",
" 2 c #232300",
" 3 c #8D8233",
" 4 c #B9A71C",
" 5 c #8B7C1D",
" 6 c #A5971C",
" 7 c #BDAB23",
" 8 c #EEEEFF",
" 9 c #AB9925",
" 0 c #BFA928",
" q c #CBB42D",
" w c #4C1E00",
" e c #DDC338",
" r c #E2C233",
" t c #C0A436",
" y c #3F4300",
" u c #D7B83C",
" i c #A59322",
" p c #39310E",
" a c #85761D",
" s c #1A1D00",
" d c #6B6C00",
" f c #DCAC2D",
" g c #808764",
" h c #C5AD34",
" j c #5E5511",
" k c #A99915",
" l c #4D5100",
" z c #B2A121",
" x c #826D13",
" c c #464803",
" v c #DDBD3E",
" b c #F5D145",
" n c #584C18",
" m c #B6A13C",
" M c #7B7402",
" N c #C1AD1F",
" B c #6F7100",
" V c #7B6923",
" C c #2F3200",
" Z c #5F580E",
" A c #AC9D1E",
" S c #0B0A01",
" D c #5C5B01",
" F c #EDC84A",
" G c #847225",
" H c #E3C74A",
" J c #AAAB89",
" K c #665A18",
" L c #756520",
" P c #938C0F",
" I c #3D3E00",
" U c #EDCB43",
" Y c #7E7022",
" T c #CCB333",
" R c #333500",
" E c #9D9312",
" W c #B7B492",
" Q c #8C8B01",
" ! c #97802D",
" ~ c #978523",
" ^ c #BEA832",
" / c #424301",
" ( c #262800",
" ) c #3E3511",
" _ c #A9A110",
" ` c #AF9C37",
" ' c #FED949",
" ] c #464508",
" [ c #7E8000",
" { c #968D11",
" } c #F4CE49",
" | c #BDA434",
".  c #747500",
".. c #EACA3F",
".X c #D2BB2E",
".o c #9A832C",
".O c #CAAD3A",
".+ c #918858",
".@ c #151206",
".# c #FAD548",
".$ c #E0BF3F",
".% c #494604",
".& c #606500",
".* c #7C7C01",
".= c #D2B43B",
".- c #B7A81D",
".; c #838301",
".: c #100E04",
".> c #C3AC2C",
"., c #A38A31",
".< c #E8C643",
".1 c #645A14",
".2 c #C9AE35",
".3 c #B4A41D",
".4 c #E2C23D",
".5 c #B4A448",
".6 c #C5AD27",
".7 c #525402",
".8 c #353900",
".9 c #B39D29",
".0 c #E3C241",
".q c #453B13",
".w c #F9D446",
".e c #7D6F15",
".r c #85842A",
".t c #928519",
".y c #72631E",
".u c #818147",
".i c #B0B0B7",
".p c #CEB139",
".a c #C4B72F",
".s c #4B4C01",
".d c #F1CE44",
".f c #8B7A22",
".g c #767900",
".h c #DABB34",
".j c #B39E3C",
".k c #681F00",
".l c #6C5D1E",
".z c #AF9C38",
".x c #918535",
".c c #6B6213",
".v c #A19813",
".b c None",
/* pixels */
".b.b.b.b.b.b.b.b.b.b.b.b.b.b.b.b.b.b.b.b.b.b.b.b.b.b.b.b.b.b.b.b",
".b.b.b.b.b.b.b.b ).y.l.l.:.b.b.b.b.b.b.b.b.b.b.b.b.b.b.b.b.b.b.b",
".b.b.b.b.b.b p O.0 b.d b.=.l.:.b.b.b.b.b.b.b.b.b.b.b.b.b.b.b.b.b",
".b.b.b.b.b ).< U v v v v.0 U u.q.b.b.b.b.b.b S.b.b.b.b.b.b.b.b.b",
".b.b.b.b S u.0 u.4 v v v v v.< u S.b.b.b.b.b O O.b.b.b.b.b.b.b.b",
".b.b.b.b L U v v v v v.0 v v u.d L.b.b.b.b L b...%.b.b.q.q.b.b.b",
".b.b.b S.O.0.< U v v v v.4 U.< v.O S.b.b S.p.0 v M S.o U = S.b.b",
".b.b.b.@ u.0 9.t.=.< v.<.=.t 9.4 u.@.b.b.:.=.0 q y !.d.0 q I.b.b",
".b.b.b n.. ~ K.y.1 > U > K.y K ~.. n.b.b.l.d v d.y b = q B.b.b.b",
".b.b.b.q 0.p.<.w u.c.2.c.= - U.= 0.q.b.b.l -.6.s &.< q B j V ).b",
".b.b.o U H.0 = v.0 =.= =.0 = =.0.0.d a.b L '.t.y.d 0 B j = ' z s",
".b ) U v 3.= 3.p 3 u.< u.x.=.x.p 3.0.3 (.O.0 v u.0 { Z = v =.- /",
".b V.d.= ^ v ^ v ^ = u.0 ^ v t e | = 7 l.O.0.$ v.0 u =.0.< q.* 2",
".b ).# m.j m ` m.j.p Y.w X m.z m.j.j E / u =.$ U.0.0 v.X A.* 2.b",
".b.b a 6 r.p v.2 e x w.a.$.O v h e x.7 D e.0 u.f @ @.* ] s.b.b.b",
".b.b S / D z.-.6 1.k o.7 @ 4 @.v.& I.8.X.0 v.0 : R C S.b.b.b.b.b",
".b.b O T + I / ] y x f.e R ] y I l.; 5.,.< v v b.f S.b.b.b.b.b.b",
".b.y b.0 U.9.i 8.u N H r.+ 8.i. .-.> b V t # v v.. E $.b.b.b.b.b",
" S.O.0 v.$ u W *.r e v #.5 * J k F.0.0 | V.d v v v.0 E $.b.b.b.b",
".q v v v = r.5 g.3 # u.0.h ,.r.h.$ v v u V v v v v.0.X D.b.b.b.b",
" G.d v v.$.$ u.3 ;.p.4.p `.6 0.0 v v v.d.f |.< v v v v {.b.b.b.b",
" ) v v v.$ v v.w G | U t Y -.0 =.$.$ v v K.p.0 v v.0 T.; 2.b.b.b",
" S.O.0 v.$.$ v.$.1.p.<.p K.$ v v.$ v.0 <.7.4 = v v.0 z Q c.b.b.b",
".b.y ' v u v.w O.7.4.$.. +.o.w = v v.#.y B.$.0 v v.0 { . /.b.b.b",
".b S L.O b.0., % P.$ v.0 z ].,.$.d.O L D . v.0 v.<.>.;.; 2.b.b.b",
".b.b.b.:.l j.7.* T.0 v v v {.s j L.s.& . 0 v v.0 q.* [.g.b.b.b.b",
".b.b.b.b.b I _ v.0 v.$.$.0 v.-.* d Q z u H.<.0 0.*.* Q /.b.b.b.b",
".b.b.b.b.b S.* q =.0.0.0.0 = } v.0 =.<.0.> A E M M Q D.b.b.b.b.b",
".b.b.b.b.b.b 2.; Q 6 A z 6.c i.c 6 z A.;.*.g.*.; Q D.b.b.b.b.b.b",
".b.b.b.b.b.b.b (.*.; [.g.; d.b d.*.g.g.;.; Q.;.g /.b.b.b.b.b.b.b",
".b.b.b.b.b.b.b.b S /.g M.; D.*.7.; Q . M.g.% (.b.b.b.b.b.b.b.b.b",
".b.b.b.b.b.b.b.b.b.b.b S I I.s I / / y S.b.b.b.b.b.b.b.b.b.b.b.b"
};
