/* XPM */
static char *hopo_std_gray[] = {
/* width height num_colors chars_per_pixel */
"    30    30      149            2",
/* colors */
".. c #000000",
".# c #000000",
".a c #000000",
".b c #000000",
".c c #000400",
".d c #000400",
".e c #000400",
".f c #000400",
".g c #080808",
".h c #080808",
".i c #080808",
".j c #080808",
".k c #080c08",
".l c #080c08",
".m c #080c08",
".n c #080c08",
".o c #101010",
".p c #101010",
".q c #101010",
".r c #101410",
".s c #101410",
".t c #101410",
".u c #181818",
".v c #181818",
".w c #181818",
".x c #181c18",
".y c #181c18",
".z c #202420",
".A c #282828",
".B c #484848",
".C c #505050",
".D c #505050",
".E c #505050",
".F c #505450",
".G c #505450",
".H c #505450",
".I c #585858",
".J c #585858",
".K c #585858",
".L c #585858",
".M c #585c58",
".N c #585c58",
".O c #585c58",
".P c #606060",
".Q c #606060",
".R c #606060",
".S c #606060",
".T c #606460",
".U c #606460",
".V c #606460",
".W c #606460",
".X c #686868",
".Y c #686868",
".Z c #686868",
".0 c #686c68",
".1 c #707070",
".2 c #707070",
".3 c #707470",
".4 c #808080",
".5 c #909490",
".6 c #909490",
".7 c #989898",
".8 c #989c98",
".9 c #989c98",
"#. c #a0a0a0",
"## c #a0a0a0",
"#a c #a0a0a0",
"#b c #a0a0a0",
"#c c #a0a4a0",
"#d c #a0a4a0",
"#e c #a0a4a0",
"#f c #a0a4a0",
"#g c #a8a8a8",
"#h c #a8a8a8",
"#i c #a8a8a8",
"#j c #a8a8a8",
"#k c #a8aca8",
"#l c #a8aca8",
"#m c #a8aca8",
"#n c #a8aca8",
"#o c #b0b0b0",
"#p c #b0b0b0",
"#q c #b0b0b0",
"#r c #b0b0b0",
"#s c #b0b4b0",
"#t c #b0b4b0",
"#u c #b0b4b0",
"#v c #b0b4b0",
"#w c #b8b8b8",
"#x c #b8b8b8",
"#y c #b8b8b8",
"#z c #b8b8b8",
"#A c #b8bcb8",
"#B c #b8bcb8",
"#C c #b8bcb8",
"#D c #b8bcb8",
"#E c #c0c0c0",
"#F c #c0c0c0",
"#G c #c0c0c0",
"#H c #c0c0c0",
"#I c #c0c4c0",
"#J c #c0c4c0",
"#K c #c0c4c0",
"#L c #c0c4c0",
"#M c #c8c8c8",
"#N c #c8c8c8",
"#O c #c8c8c8",
"#P c #c8c8c8",
"#Q c #c8ccc8",
"#R c #c8ccc8",
"#S c #c8ccc8",
"#T c #c8ccc8",
"#U c #d0d0d0",
"#V c #d0d0d0",
"#W c #d0d0d0",
"#X c #d0d0d0",
"#Y c #d0d4d0",
"#Z c #d0d4d0",
"#0 c #d0d4d0",
"#1 c #d0d4d0",
"#2 c #d8d8d8",
"#3 c #d8d8d8",
"#4 c #d8d8d8",
"#5 c #d8d8d8",
"#6 c #d8dcd8",
"#7 c #d8dcd8",
"#8 c #d8dcd8",
"#9 c #d8dcd8",
"a. c #e0e0e0",
"a# c #e0e0e0",
"aa c #e0e0e0",
"ab c #e8e8e8",
"ac c #e8e8e8",
"ad c #e8ece8",
"ae c #e8ece8",
"af c #e8ece8",
"ag c #f0f0f0",
"ah c #f0f0f0",
"ai c #f0f0f0",
"aj c #f0f0f0",
"ak c #f0f4f0",
"al c #f0f4f0",
"am c #f8f8f8",
"an c #f8f8f8",
"ao c #f8f8f8",
"ap c #f8fcf8",
"aq c #f8fcf8",
"ar c #f8fcf8",
"as c #f8fcf8",
/* pixels */
"as#a#3#s#R#n#V#y#r#D#H#y#B#B#G#N#F#F#I#C#A#H#r#I#C#I#J#x#O#n",
"ae#T#D#M#G#F#h.T.O.Z.F.W.2.P.Q#u#o#1#J#G#L#v#P#D#N#h#y#J#S#F",
"as#s#r#v#K#O.e#L#D#s#Y#i#d#S#s.d#J#H#y#g#L#B#r#S#y#Y#N#J#j#J",
"ag#M#P#E#O...8#N#0#u#N#L#P#y#R#A..#0#D#H#P.g.i#e#B#S#e#C#T#N",
"as#B#z#L#s.e#P#u#q#E#x#L#t#v#m#H.m#.#G#O..#u#w.x#M#K.d..#T.6",
"ao#N#p#G.o#q#6#z#w#7#C#ca.#O#o#1#G.q#G#F.p#O#M#t....#G#M.W#Y",
"aj#D#O#r..#B###R#C#H#L#K#y#P#K#n#y..#z..#M#I#E...q#E#B#x.C#D",
"as#n#u#7..#S#Q...n#y#p#X...c.##P#Q.e#u.v#n#Q#s.k#t#z#W#w.O#Q",
"as#7#z#c...b#x#G#q.m#v.f#m#Z#P#x.a..#R..#O#z.s#q#J#y#R.b.w#r",
"a##Q#O.r#J#F#s#F#Z#x#f#7#L#s#H#E#S#S.H..#B#s.f#L#n#Q..#z#E..",
"as#u..#w#H.f#x.W..#w#C#R..#P..#O.f#k.X#5#x#H#Q#M#S..#z#J#U..",
"as#t.o#A#K#A#K#G#W#Y#Q#m#3#q#1#n#ya..B#n#N#F#p#F#F#D#1#m#c.y",
"ad#R.K.Y.M#m.W.4#t.5.g#F#j.K#D.1#O.G.X#V#z#F.T#E#i#Z.J.S.Y.7",
"as#C#K#k.a.m#C#K#J.z#I.k#B#W#C#t.h..#T#s#y#J#R...y..#z#O#M#S",
"ao#F#Q.a#N#N...h..#i#B#w...l...a#E#4.I#G#P#F#v#F.e#s#Z#H#i#D",
"as#j.m#r#K#z#O.R..#S#u#K.t#A.f#L#A#x.U#4#t#B#P#C#F.a#O#G#A#E",
"ap.w#s#A#v#K#w.L.e#K#O#w.d#z.h#n#j#0#H..#O#J#H#x#I#y..#W#v#Y",
"as..#2#Y#H#s#v.3#E#s#G#q#O.o#h#2#3#A#j.e#E#v#U#z#t#3.d#o#I#y",
"ak.e#x#x#V#2#n#x#C#L#H#U#b#U#p#M#F#s#7.##j#4#G#r#r#T#d.m#H#L",
"as..#B#t#j#i#V#M.e#r#n#Z.u.9ab#i#f#F#b.j#Q#m#F#O#V#o#Y..#i#X",
"am.s#o#8#K#z#N#l..#Z#B#h.a#H#m#H#Z#P#D.a#J#K#R#B#K#B#p.A#q#v",
"aj#I..#M#h#3#E.K#y#0#D#v#l.k#W#C#r#q.P#B#x#I#u#K#q#R#A.g#P#y",
"as###W.M.Q.D.S.5#E#n#u#Y#P#D.C.P.V.N#f#n#P#F#I#D#K#A.0.L#J#R",
"ao#I#q#R#G#U..#E#K#z#F#H#y#C#J#D#y#x#G#w#F#I#n#M#G#t.n#I#A#w",
"as#Q#R#o#C#i.k#H#u#W#I#K#v#T#j#P#w#Q#G#N#p#Y#J#E#X..#r#r#N#L",
"af#j#B#O#F#0#j.Y#O#B#H#l#I..#T..#V#q#I#c#R#A#p#Z..#9#S#O#u#t",
"as#1#Q#A#A#C#S.E#A#w#ca.#T#d.c#G#G#A#E#4#M#f#4..#X#m#F#A#x#J",
"ah#G#z#f#O#A#L#P...a#X#j#I.s#v.l#L#w#P#p.#.q.k#P#E#E#x#3#D#F",
"as#y#F#P#K#z#r#J#G#B.d...d.c...m.b.l...j#A#I#h#B#M#B#r#o#F#T",
"aoalacasalaqasamas#6asasamasasaaaoasajasaqalasajaiarasasakan"
};
