/* XPM */
static char *logo-openxm2[] = {
/* width height num_colors chars_per_pixel */
"    33    33        3            1",
/* colors */
". c #000000",
"# c #ff8040",
"a c #ffffff",
/* pixels */
"aaaaaaaaaaaaaaaaaaaaaaaaaaaaaaaaa",
"aaaaaaaaaaaaaaaaaaaaaaaaaaaaaaaaa",
"aaa.....aaaaaaaaaaaaaaaaa.....aaa",
"aa..####.aaaaa.....aaaaa.####..aa",
"aa.#####.aa...#####...aa.#####.aa",
"aa.######..###########..######.aa",
"aa.#####.###############.#####.aa",
"aaa.###.#################.###.aaa",
"aaaa.#.###################.#.aaaa",
"aaaaa.####...##############.aaaaa",
"aaaaa.###.###.####.#####.##.aaaaa",
"aaaa.###.#####.####.###.####.aaaa",
"aaaa.##.#######.####.#.#####.aaaa",
"aaaa.##.#######.#####.######.aaaa",
"aaa.###.#######.####.#.######.aaa",
"aaa.####.#####.####.###.#####.aaa",
"aaa.#####.###.####.#####.####.aaa",
"aaa.######...################.aaa",
"aaa.##########.....##########.aaa",
"aaaa.########.#####.########.aaaa",
"aaaa.#######.#######.#######.aaaa",
"aaaa.######.##..#..##.######.aaaa",
"aaaaa.#####.##..#..##.#####.aaaaa",
"aaaaa.#####.##..#..##.#####.aaaaa",
"aaaa.#.####.##..#..##.####.#.aaaa",
"aaa.###.####.#######.####.###.aaa",
"aa.#####.####.......####.#####.aa",
"aa.######..###########..######.aa",
"aa.#####.aa...#####...aa.#####.aa",
"aa..####.aaaaa.....aaaaa.####..aa",
"aaa.....aaaaaaaaaaaaaaaaa.....aaa",
"aaaaaaaaaaaaaaaaaaaaaaaaaaaaaaaaa",
"aaaaaaaaaaaaaaaaaaaaaaaaaaaaaaaaa"
};
