/* XPM */
static char *logo-openxm2[] = {
/* width height ncolors chars_per_pixel */
"32 32 98 2",
/* colors */
"   c #000000",
" . c #321C10",
" X c #AA6030",
" o c #3F3A37",
" O c #3A2111",
" + c #C67C3E",
" @ c #985128",
" # c #37302F",
" $ c #EE8241",
" % c #4B2311",
" & c #D67A3D",
" * c #955128",
" = c #C77138",
" - c #0C0201",
" ; c #EE753A",
" : c #FAFBFB",
" > c #BA6A35",
" , c #D97339",
" < c #FF9D51",
" 1 c #75391C",
" 2 c #B25A2D",
" 3 c #8D4D26",
" 4 c #FD8E48",
" 5 c #AC542A",
" 6 c #D06229",
" 7 c #7E4221",
" 8 c #1D0E07",
" 9 c #C45B27",
" 0 c #FF9A4D",
" q c #562914",
" w c #EA7F3F",
" e c #DADDDE",
" r c #C66C36",
" t c #FAFAFA",
" y c #E47339",
" u c #FE8342",
" i c #9B4D26",
" p c #3B1B0D",
" a c #30180C",
" s c #512512",
" d c #62381C",
" f c #DC7C3E",
" g c #FFA253",
" h c #7A3B1C",
" j c #F1773B",
" k c #352110",
" l c #441D0E",
" z c #F38543",
" x c #632E15",
" c c #CB7239",
" v c #FE944A",
" b c #1E1209",
" n c #7A401E",
" m c #A46130",
" M c #904623",
" N c #844321",
" B c #241108",
" V c #232F35",
" C c #38170B",
" Z c #FE8B46",
" A c #C86532",
" S c #FFA854",
" D c #BB5E2F",
" F c #D36A36",
" G c #F4793C",
" H c #34150A",
" J c #422211",
" K c #C36130",
" L c #878586",
" P c #B95B26",
" I c #FFFFFF",
" U c #B57339",
" Y c #E5EAEC",
" T c #623319",
" R c #B96633",
" E c #1E2122",
" W c #DEE2E5",
" Q c #CD6C36",
" ! c #D6DADD",
" ~ c #693219",
" ^ c #B56432",
" / c #5C2D16",
" ( c #120502",
" ) c #844C26",
" _ c #949292",
" ` c #A5592C",
" ' c #2E2724",
" ] c #894321",
" [ c #A15128",
" { c #D47339",
" } c #DA6A35",
" | c #2F2B28",
".  c #E3E7E9",
".. c #B26A35",
".X c #F78844",
".o c #FB7D3E",
".O c #F7F8F9",
".+ c None",
/* pixels */
".+.+.+.+.+.+.+.+.+.+.+.+.+.+.+.+.+.+.+.+.+.+.+.+.+.+.+.+.+.+.+.+",
".+.+.+.+ : : :.+.+.+.+.+.+.+.+.+.+.+.+.+.+.+.+.+.+.O.+.O.+.+.+.+",
".+.+ e   - -   #.+.+.+.+.+.+ Y Y Y Y.+.+.+.+.+.+ #   - -   e.+.+",
".+.+   a 4.X v P V.+.O !.+ L   ( (   L.+ e :.+ V P v.X 4 a  .+.+",
".+ : - 4.o.o u 9 o.+ _     1 0.X.X < 1     _.+ o 9 u.o.o v - :.+",
".+ : - 4.o.o.o Z 5   x <.X u.o.o.o.o Z.X < x   5 Z u.o.o 4 - :.+",
".+.+ ' 6 Z.o Z ] O g z G.o.o u.o.o u.o.o.o z g p ] Z.o Z 6 '.+.+",
".+.+.O E 6 Z ] J 0 j Z Z u.o.o.o.o.o.o u.o.o j 0 O ] Z 6 E :.+.+",
".+.+.+ Y ' 2 O 0 G $ 5 5 Q Z.o u.o Z u.o.o.o.o u 0 O 5 ' Y.+.+.+",
".+.+.+.+ e ( 0 G z h B B s , Z G u K { Z.o.o v 2 } g ( e.+.+.+.+",
".+.+.+.+ _ x Z z ~ d 0 0 X p , Z Z N % w u Z r a A Z x _.+.+.+.+",
".+.+.+ ! - < j h d 0 ; j v m % ,.o 0 ) % $ A a c Z.o 0 - !.+.+.+",
".+.+.+ W - v D B 0 ; u.o G v n / v ; v @ 1 / & u.o.o Z - W.+.+.+",
".+.+.+ L 1 Z R b 0 j u u G v n / v j Z F / 1 $ u.o.o u 1 L.+.+.+",
".+.+ Y - v u y / @ v G G Z = s D u v ^ H & * l w Z.o.o 0 - Y.+.+",
".+.+ Y ( u.o Z y J @ 0 v c l ` Z.o 5 p = u v 3 % y u.o u ( Y.+.+",
".+.+ Y ( u.o.o u f q T T % m S.X 0 ^ A Z.o G v N F u.o u ( Y.+.+",
".+.+ Y - 0.o u.o u & x T.. + C / q q = Z G u G Z u u.o v - Y.+.+",
".+.+.+ L 1 u.o.o u u Z 0 U l 7 1 h n l > Z.o u G.o.o Z h L.+.+.+",
".+.+.+.  - Z.o.o.o.o Z R C = S v v S r p > Z.o u.o.o Z - W.+.+.+",
".+.+.+ ! ( 0.o u.o u A % , = B D D B r , % A Z.o.o.o 0 - !.+.+.+",
".+.+.+.+ _ x u.o.o Z i k S ]   i i   M S k i Z.o.o u x _.+.+.+.+",
".+.+.+.+ ! ( g ; u Z [ p < i   [ [   i 0 C @ Z u G < ( !.+.+.+.+",
".+.+.+ Y | 5 O 0 ; Z i k S ]   i @   M S k i Z ; 0 O 2 |. .+.+.+",
".+.+ : E 6 Z ] O 0 j.o 1 d 0 } z z } 0 d 1.o j 0 J ] Z 9 ' t.+.+",
".+.+ ' 6 Z u Z ] O g Z.o 1 - a 8 8 a - 1.o Z g O ] Z.o Z 6 '.+.+",
".+ : - 4.o u.o Z 5   x g $ F K A A K F z g /   5 Z u.o.o 4 -.O.+",
".+ : - 4.o.o u 9 o.+ _     7 g.X 4 g h     _.+ o 9 u.o.o 4 - :.+",
".+.+   a Z z v P V.+ t !.+ L   ( -   L.+ !.O.+ V P v u v .  .+.+",
".+.+ e   - -   #.+.+.+.+.+.+ Y Y Y Y.+.+.+.+.+.+ #   - -   e.+.+",
".+.+.+.+ : :.O.+.+.+.+.+.+.+.+.+.+.+.+.+.+.+.+.+.+ t : :.+.+.+.+",
".+.+.+.+.+.+.+.+.+.+.+.+.+.+.+.+.+.+.+.+.+.+.+.+.+.+.+.+.+.+.+.+"
};
